HIERARCHY
ROOT Hips
{
	OFFSET 0.00000 0.00000 0.00000
	CHANNELS 6 Xposition Yposition Zposition Yrotation Zrotation Xrotation 
	JOINT Lumbar
	{
		OFFSET 0 0 0
		CHANNELS 3 Zrotation Xrotation Yrotation
		JOINT Neck
		{
			OFFSET 0.00 0.2701 0.00
			CHANNELS 3 Zrotation Xrotation Yrotation
			End Site
			{
				OFFSET 0.00 0.1379 0.00
			}
		}
		JOINT RightShoulder
		{
			OFFSET 0.0119 0.2289 0.1181
			CHANNELS 3 Zrotation Xrotation Yrotation
			JOINT RightElbow
			{
				OFFSET 0.00 -0.1475 0.00
				CHANNELS 2 Zrotation Yrotation
				JOINT RightWrist
				{
					OFFSET 0.00 -0.1605 0.00
					CHANNELS 2 Zrotation Xrotation
					End Site
					{
						OFFSET 0.0040 -0.1068 0.0006
					}
				}
			}
		}
		JOINT LeftShoulder
		{
			OFFSET 0.0119 0.2289 -0.1181
			CHANNELS 3 Zrotation Xrotation Yrotation
			JOINT LeftElbow
			{
				OFFSET 0.00 -0.1475 0.00
				CHANNELS 2 Zrotation Yrotation
				JOINT LeftWrist
				{
					OFFSET 0.00 -0.1605 0.00
					CHANNELS 2 Zrotation Xrotation
					End Site
					{
						OFFSET 0.0040 -0.1068 -0.0006
					}
				}
			}
		}
	}
	JOINT RightHip
	{
		OFFSET 0.0316 -0.0424 0.0458
		CHANNELS 3 Zrotation Xrotation Yrotation
		JOINT RightKnee
		{
			OFFSET 0.00 -0.2438 0.00
			CHANNELS 1 Zrotation
			JOINT RightAnkle
			{
				OFFSET 0.00 -0.2449 0.00
				CHANNELS 3 Zrotation Xrotation Yrotation
				End Site
				{
					OFFSET 0.1237 -0.0542 0.0051
				}
			}
		}
	}
	JOINT LeftHip
	{
		OFFSET 0.0316 -0.0424 -0.0458
		CHANNELS 3 Zrotation Xrotation Yrotation
		JOINT LeftKnee
		{
			OFFSET 0.00 -0.2438 0.00
			CHANNELS 1 Zrotation
			JOINT LeftAnkle
			{
				OFFSET 0.00 -0.2449 0.00
				CHANNELS 3 Zrotation Xrotation Yrotation
				End Site
				{
					OFFSET 0.1237 -0.0542 -0.0051
				}
			}
		}
	}
}
MOTION
Frames: 16
Frame Time: 0.02
-6e-05 -3e-05 -0.00018 -179.56951 -35.81603 -3.1343 43.18049 2.4909 -5.06851 -12.78322 -1.75814 -0.41362 69.20395 -102.69157 64.17075 5.32896 101.99653 12.96101 0.75218 51.14907 103.25852 -64.16628 7.968 -90.29222 9.65499 1.61513 39.31022 -1.60632 -5.46994 -21.99882 -6.99453 -3.95373 -2.73025 44.62085 7.74466 -2.52702 -27.67937 -6.88249 3.61502 2.54538
-0.00037 -5e-05 -0.00017 -179.54388 -35.59161 -3.12873 42.98682 2.47916 -5.08796 -12.79648 -1.75985 -0.41487 69.20219 -102.70484 64.17075 5.32896 102.01895 12.96809 0.74322 51.28054 103.27429 -64.16677 7.96051 -90.24591 9.66574 1.57833 38.99567 -1.62503 -5.60531 -21.94764 -6.986 -3.93801 -2.72156 44.32247 7.80858 -2.27289 -27.64893 -6.869 3.58528 2.52669
-0.00067 -6e-05 -0.00015 -179.51841 -35.36814 -3.12319 42.79404 2.46745 -5.10731 -12.80969 -1.76156 -0.41611 69.20062 -102.71806 64.17075 5.32897 102.04133 12.97512 0.73434 51.41166 103.29005 -64.16725 7.95303 -90.19973 9.67644 1.54162 38.68239 -1.64369 -5.74025 -21.89667 -6.9775 -3.92233 -2.7129 44.02527 7.87229 -2.01959 -27.61861 -6.85554 3.55565 2.50807
-0.00097 -7e-05 -0.00013 -179.49288 -35.14447 -3.11763 42.60103 2.45575 -5.1267 -12.82292 -1.76327 -0.41734 69.19889 -102.73129 64.17075 5.32897 102.06369 12.98217 0.72542 51.54274 103.30579 -64.16774 7.94556 -90.15356 9.68715 1.50493 38.36887 -1.66235 -5.87521 -21.84565 -6.96899 -3.90665 -2.70424 43.72785 7.93601 -1.76625 -27.58826 -6.84209 3.526 2.48944
-0.00128 -9e-05 -0.00011 -179.46715 -34.91972 -3.11203 42.40701 2.44402 -5.14621 -12.8362 -1.76498 -0.41859 69.19694 -102.74458 64.17075 5.32897 102.08609 12.98928 0.71642 51.67416 103.32151 -64.16823 7.93807 -90.10727 9.69793 1.46815 38.05394 -1.68105 -6.01057 -21.79438 -6.96047 -3.89093 -2.69556 43.42913 7.99995 -1.51204 -27.55778 -6.8286 3.49626 2.47074
-0.00158 -0.0001 -9e-05 -179.4422 -34.69895 -3.10662 42.21683 2.43235 -5.16521 -12.84927 -1.76667 -0.41982 69.19615 -102.75766 64.17075 5.32898 102.10839 12.99613 0.70778 51.80464 103.33734 -64.16871 7.93063 -90.06133 9.70844 1.43161 37.74411 -1.69963 -6.14464 -21.74404 -6.95199 -3.87533 -2.68694 43.13512 8.06318 -1.26067 -27.5278 -6.81523 3.46685 2.45228
-0.00189 -0.00011 -7e-05 -179.41575 -34.47049 -3.10084 42.0192 2.42057 -5.18521 -12.86275 -1.76842 -0.42107 69.19301 -102.77115 64.17075 5.32898 102.1309 13.00351 0.69842 51.93686 103.35297 -64.1692 7.9231 -90.01472 9.71948 1.39462 37.42446 -1.71845 -6.28118 -21.69191 -6.94343 -3.85952 -2.6782 42.83205 8.12777 -1.0039 -27.49684 -6.80164 3.43679 2.43337
-0.00219 -0.00013 -5e-05 -179.39064 -34.24898 -3.0954 41.8283 2.40889 -5.20431 -12.87584 -1.7701 -0.4223 69.19206 -102.78426 64.17075 5.32898 102.15318 13.0104 0.68973 52.06747 103.36875 -64.16969 7.91566 -89.96873 9.73003 1.35805 37.11369 -1.73703 -6.41539 -21.64139 -6.93495 -3.8439 -2.66958 42.53717 8.19111 -0.75206 -27.46678 -6.78825 3.40733 2.41487
-0.00249 -0.00014 -3e-05 -179.36735 -34.03649 -3.09039 41.64618 2.39734 -5.22223 -12.88852 -1.77173 -0.42352 69.19373 -102.7969 64.17074 5.32899 102.17531 13.01669 0.68184 52.19623 103.38484 -64.17016 7.90828 -89.92347 9.74001 1.32198 36.81441 -1.7554 -6.54701 -21.59298 -6.92655 -3.82848 -2.66107 42.25288 8.25289 -0.50635 -27.43786 -6.77511 3.3786 2.39688
-0.0028 -0.00015 -1e-05 -179.33411 -33.77368 -3.08294 41.41521 2.38507 -5.24671 -12.90374 -1.77375 -0.42483 69.18017 -102.8122 64.17077 5.32898 102.19871 13.02641 0.6693 52.336 103.3995 -64.17069 7.90042 -89.87394 9.75333 1.28295 36.45092 -1.7752 -6.69431 -21.53287 -6.91765 -3.81181 -2.65183 41.90937 8.32356 -0.22566 -27.40248 -6.76053 3.34567 2.37598
-0.00309 -0.00016 1e-05 -179.32154 -33.61601 -3.08061 41.28621 2.37432 -5.25747 -12.91352 -1.77491 -0.42595 69.19883 -102.82193 64.17073 5.32902 102.21917 13.0289 0.6666 52.45227 103.41698 -64.1711 7.89362 -89.83346 9.75958 1.25022 36.22166 -1.79184 -6.80803 -21.49717 -6.90983 -3.79786 -2.64418 41.68971 8.37554 -0.01858 -27.38065 -6.74898 3.32158 2.36118
-0.00333 -0.00018 6e-05 -179.36878 -33.75813 -3.0926 41.44884 2.36774 -5.22922 -12.9087 -1.77386 -0.42658 69.306 -102.81602 64.17046 5.32924 102.23357 13.0114 0.69085 52.50596 103.44385 -64.17118 7.88951 -89.81782 9.74636 1.23459 36.37473 -1.80085 -6.83296 -21.53135 -6.9047 -3.79085 -2.64051 41.8222 8.37516 -0.01717 -27.39706 -6.74586 3.32224 2.36355
-0.00354 -0.00021 0.0001 -179.43619 -34.00377 -3.10967 41.7117 2.36268 -5.18744 -12.89835 -1.77193 -0.42703 69.44552 -102.80458 64.17012 5.32952 102.24465 12.98664 0.72494 52.53589 103.47323 -64.17113 7.8865 -89.81126 9.72604 1.2253 36.66007 -1.80649 -6.82364 -21.58951 -6.90071 -3.78667 -2.6385 42.07685 8.35621 -0.089 -27.42687 -6.74575 3.33168 2.37196
-0.00377 -0.00023 0.00015 -179.49236 -34.1946 -3.12422 41.92093 2.35693 -5.15273 -12.89029 -1.77031 -0.42756 69.5702 -102.7959 64.16983 5.32976 102.25595 12.96532 0.75457 52.57524 103.50039 -64.17114 7.88312 -89.80053 9.70901 1.21321 36.87566 -1.81292 -6.82772 -21.63479 -6.89639 -3.78155 -2.63598 42.26745 8.34647 -0.12487 -27.44983 -6.74417 3.33676 2.3773
-0.004 -0.00025 0.00019 -179.55737 -34.41821 -3.13968 42.16433 2.35118 -5.11409 -12.88316 -1.76904 -0.42811 69.69551 -102.78619 64.16947 5.33007 102.27266 12.94349 0.78429 52.61965 103.53215 -64.17115 7.87917 -89.78998 9.69172 1.20084 37.1319 -1.82236 -6.84056 -21.68843 -6.8913 -3.77499 -2.63244 42.49398 8.33347 -0.17211 -27.47603 -6.74301 3.34342 2.38402
-0.00421 -0.00027 0.00025 -179.60867 -34.59837 -3.15444 42.3605 2.34579 -5.08045 -12.87282 -1.76687 -0.42857 69.82717 -102.7773 64.16925 5.33025 102.27732 12.92087 0.81603 52.64878 103.55486 -64.17113 7.87669 -89.78124 9.67328 1.19049 37.33524 -1.82486 -6.82741 -21.73042 -6.88807 -3.77208 -2.63139 42.67502 8.3228 -0.21314 -27.49866 -6.74169 3.34887 2.38929
